<svg xmlns="http://www.w3.org/2000/svg" viewBox="0 0 1600 560" role="img" aria-label="Stylized professional desk with resume and laptop">
  <defs><linearGradient id="bg" x1="0" y1="0" x2="1" y2="1"><stop stop-color="#06162c"/><stop offset="1" stop-color="#174f83"/></linearGradient><linearGradient id="desk" x1="0" y1="0" x2="1" y2="0"><stop stop-color="#0a1b2e"/><stop offset="1" stop-color="#18324f"/></linearGradient></defs>
  <rect width="1600" height="560" fill="url(#bg)"/>
  <rect x="760" y="355" width="840" height="205" fill="url(#desk)"/>
  <g transform="translate(1045 80)"><rect x="0" y="0" width="420" height="250" rx="14" fill="#0b1421" stroke="#72b4ff" stroke-opacity=".5" stroke-width="3"/><rect x="28" y="28" width="364" height="194" fill="#0d3f70"/><path d="M-35 260h490l55 45H-90z" fill="#17293d"/><path d="M125 278h170" stroke="#8fbce6" stroke-opacity=".4" stroke-width="6"/></g>
  <g transform="translate(830 110) rotate(-6)"><rect width="280" height="350" rx="8" fill="#f7fbff"/><rect x="30" y="32" width="170" height="18" fill="#0b2e55"/><rect x="30" y="72" width="220" height="8" fill="#9bb3ca"/><rect x="30" y="94" width="210" height="8" fill="#c0cfdd"/><rect x="30" y="132" width="150" height="14" fill="#174f83"/><g fill="#c3d2df"><rect x="30" y="162" width="220" height="7"/><rect x="30" y="182" width="205" height="7"/><rect x="30" y="202" width="215" height="7"/><rect x="30" y="240" width="220" height="7"/><rect x="30" y="260" width="180" height="7"/><rect x="30" y="280" width="200" height="7"/></g></g>
  <g transform="translate(1380 390) rotate(20)" stroke="#bfe1ff" stroke-width="8" stroke-linecap="round"><path d="M0 0l120 70"/></g>
  <path d="M0 0h760v560H0z" fill="#071a33" fill-opacity=".4"/>
</svg>
