<svg xmlns="http://www.w3.org/2000/svg" viewBox="0 0 800 450">
<rect width="800" height="450" rx="28" fill="#f4f8fb"/>
<text x="64" y="54" font-family="Arial,sans-serif" font-size="24" font-weight="700" fill="#17334a">Microsoft 365, Identity &amp; Cloud</text>
<path d="M255 285c-55 0-95-36-95-84 0-45 35-80 82-83 17-50 64-84 120-84 69 0 125 51 130 115 52 4 93 40 93 86 0 49-44 88-99 88H255z" fill="#e7f1f8" stroke="#3379a5" stroke-width="4"/>
<g fill="#3379a5"><rect x="310" y="160" width="66" height="66"/><rect x="386" y="160" width="66" height="66"/><rect x="310" y="236" width="66" height="66"/><rect x="386" y="236" width="66" height="66"/></g>
<g font-family="Arial,sans-serif" font-size="17" font-weight="700" fill="#315c78" text-anchor="middle">
<text x="220" y="375">Identity</text><text x="350" y="375">Collaboration</text><text x="500" y="375">Automation</text><text x="630" y="375">Governance</text>
</g></svg>